<svg width="25" height="25" viewBox="0 0 25 25" fill="none" xmlns="http://www.w3.org/2000/svg">
<path d="M2.5304 12.4718C3.4207 14.4436 4.93697 16.5798 6.69015 18.3329C8.56011 20.2029 10.6231 21.6838 12.4991 22.5021C13.5205 22.9479 14.4343 23.1708 15.2036 23.1708C15.9683 23.1708 16.59 22.95 17.0312 22.5085L18.8008 20.7395C19.3383 20.2014 19.2902 19.2781 18.6932 18.6808L16.0857 16.073C15.4881 15.476 14.5642 15.4281 14.027 15.9657L13.215 16.7776C12.99 16.9459 11.5994 16.5176 10.0349 14.9531C8.46955 13.3881 8.04025 11.9965 8.20947 11.7736L9.02233 10.9607C9.55987 10.4229 9.5117 9.49905 8.9147 8.90206L6.30659 6.29455C5.70898 5.69756 4.78574 5.64908 4.2479 6.18723L2.47887 7.95626C1.59557 8.83925 1.61387 10.443 2.53009 12.4718H2.5304ZM3.34143 8.81852L5.11077 7.04948C5.12296 7.03729 5.14736 7.02997 5.17876 7.02997C5.24767 7.02997 5.35225 7.06442 5.44463 7.15681L8.05214 9.76432C8.18691 9.89908 8.19849 10.0598 8.15977 10.0985L7.34691 10.911C6.33647 11.9221 7.50027 14.1433 9.17234 15.8154C10.005 16.6477 10.9206 17.313 11.7506 17.6878C13.1165 18.3049 13.7943 17.9231 14.0764 17.6405L14.8892 16.8279C14.9283 16.7889 15.0883 16.8008 15.2234 16.9353L17.8306 19.5431C17.9654 19.6778 17.977 19.8382 17.9382 19.8769L16.1689 21.6463C15.678 22.1375 14.4886 22.0396 12.987 21.3841C11.2472 20.6252 9.31717 19.2351 7.55241 17.4707C5.89924 15.8175 4.47414 13.8122 3.64176 11.9697C2.96915 10.4808 2.85664 9.303 3.34113 8.81852H3.34143ZM22.7392 13.8235C22.7392 7.21017 17.3586 1.82959 10.7453 1.82959V3.04919C16.6863 3.04919 21.5196 7.88278 21.5196 13.8235H22.7392Z" fill="white"/>
<path d="M10.9637 4.97705V6.22705C15.2233 6.22705 18.689 9.7533 18.689 14.0877H19.9175C19.9175 9.06393 15.9005 4.97705 10.9637 4.97705Z" fill="white"/>
<path d="M15.5617 14.0874H16.7902C16.7902 10.8187 14.1767 8.15869 10.964 8.15869V9.40869C13.4992 9.40869 15.5617 11.5078 15.5617 14.0874Z" fill="white"/>
</svg>
