<svg width="24" height="14" viewBox="0 0 24 14" fill="none" xmlns="http://www.w3.org/2000/svg">
<path d="M24 6.98692C24 6.7217 23.8946 6.46735 23.7071 6.27981C23.5196 6.09228 23.2652 5.98692 23 5.98692L3.414 5.98692L7.706 1.69492C7.88816 1.50632 7.98895 1.25372 7.98667 0.99152C7.98439 0.729324 7.87923 0.478511 7.69382 0.293103C7.50841 0.107694 7.2576 0.00252679 6.9954 0.000248488C6.7332 -0.00202982 6.4806 0.098764 6.292 0.280923L0.291999 6.28092C0.199468 6.37292 0.126033 6.4823 0.0759214 6.60277C0.0258096 6.72325 8.91419e-06 6.85244 -6.11147e-07 6.98292L-6.10798e-07 6.98692C-5.99433e-07 7.11692 0.0259985 7.24692 0.0779985 7.36892C0.127839 7.49016 0.201261 7.60029 0.294 7.69292L6.294 13.6929C6.4826 13.8751 6.7352 13.9759 6.9974 13.9736C7.2596 13.9713 7.51041 13.8661 7.69582 13.6807C7.88123 13.4953 7.98639 13.2445 7.98867 12.9823C7.99095 12.7201 7.89016 12.4675 7.708 12.2789L3.414 7.98692L23 7.98692C23.2652 7.98692 23.5196 7.88156 23.7071 7.69403C23.8946 7.50649 24 7.25214 24 6.98692Z" fill="black"/>
</svg>
